<svg xmlns="http://www.w3.org/2000/svg" xmlns:v="https://svgstorm.com"
viewBox = "0 0 405 417"
width="405"
height="417">
<g fill="None" fill-opacity="0.0" stroke="#000000" stroke-opacity="0.00" stroke-width="0.3"><path d="
M 0.00 417.00 
L 405.00 417.00
L 405.00 0.00
L 0.00 0.00
L 0.00 417.00
M 288.00 83.00 
C 269.35 91.24 251.63 101.83 233.77 111.77 C 215.18 130.44 227.62 160.93 224.00 185.00
C 213.87 184.86 221.25 168.26 219.00 161.00 C 215.05 135.48 229.12 101.36 206.77 83.23 C 180.83 69.05 154.44 55.59 128.31 41.69 C 108.86 35.60 130.84 10.72 145.00 16.00 C 185.00 16.00 225.00 16.00 265.00 16.00 C 299.66 16.64 285.04 59.98 288.00 83.00
M 212.00 185.00 
C 191.00 185.00 170.00 185.00 149.00 185.00 C 128.39 189.90 115.21 169.67 120.00 151.00 C 120.00 129.67 120.00 108.33 120.00 87.00
C 147.62 100.49 175.11 115.79 202.25 130.75 C 218.98 143.49 209.54 166.88 212.00 185.00
M 288.00 132.00 
C 285.65 147.70 293.96 168.54 280.92 179.92 C 266.80 189.47 247.52 183.17 231.00 185.00
C 226.57 151.47 267.44 146.52 288.00 132.00
M 134.00 338.00 
C 124.67 338.00 115.33 338.00 106.00 338.00
C 106.00 326.33 106.00 314.67 106.00 303.00
C 88.16 301.94 75.09 302.76 58.00 302.00 C 49.52 304.76 56.06 319.43 54.00 327.00 C 58.70 340.16 46.41 338.47 37.00 338.00 C 23.56 342.25 25.64 328.90 26.00 320.00 C 26.00 310.00 26.00 300.00 26.00 290.00 C 28.09 282.14 21.81 268.20 29.00 265.00
C 22.49 254.94 27.64 237.22 26.00 224.00 C 24.46 192.13 68.67 207.55 90.00 204.00 C 103.05 206.05 119.58 199.09 129.75 209.25 C 138.97 234.59 131.66 265.43 134.00 293.00 C 134.00 308.00 134.00 323.00 134.00 338.00
M 186.00 337.00 
C 189.26 328.07 192.25 319.10 195.00 310.00
C 207.00 310.00 219.00 310.00 231.00 310.00
C 231.00 295.33 231.00 280.67 231.00 266.00
C 213.33 266.00 195.67 266.00 178.00 266.00
C 178.00 301.67 178.00 337.33 178.00 373.00
C 167.05 370.42 145.09 381.14 150.00 362.00 C 150.00 334.00 150.00 306.00 150.00 278.00 C 151.07 266.20 146.96 250.75 156.70 242.70 C 181.01 234.57 209.86 241.11 236.00 239.00 C 264.86 235.35 257.95 272.61 258.20 287.25 C 257.99 298.39 258.25 312.42 257.67 324.67 C 255.32 338.93 239.39 337.54 228.00 337.00 C 214.00 337.00 200.00 337.00 186.00 337.00
M 310.00 338.00 
C 312.64 328.57 316.35 319.46 319.00 310.00
C 331.00 310.00 343.00 310.00 355.00 310.00
C 353.86 295.57 354.61 280.29 355.00 267.00
C 337.33 267.00 319.67 267.00 302.00 267.00
C 301.71 304.47 303.11 339.79 302.00 373.00
C 293.00 373.00 284.00 373.00 275.00 373.00
C 275.40 332.72 274.24 295.56 275.00 258.00 C 273.34 232.59 304.45 239.78 321.00 239.00 C 340.05 241.92 364.01 232.28 379.25 245.75 C 385.15 261.86 380.44 283.98 382.60 298.75 C 380.86 309.38 387.51 328.02 372.92 335.92 C 352.98 340.46 330.84 336.84 310.00 338.00
M 78.00 306.00 
C 80.57 309.62 76.14 313.58 72.33 311.67 C 69.51 308.18 74.30 304.67 78.00 306.00
M 162.00 409.00 
C 155.67 413.07 145.93 414.96 142.23 405.77 C 139.71 397.92 144.97 385.97 154.07 388.93 C 163.95 391.50 160.43 403.94 162.00 409.00
M 128.00 403.00 
C 127.56 406.50 129.91 413.83 124.00 413.00
C 124.00 405.00 124.00 397.00 124.00 389.00
C 129.69 389.24 139.38 387.00 139.97 395.03 C 141.14 401.95 133.47 405.43 128.00 403.00
M 177.00 403.00 
C 178.28 406.26 180.53 408.86 182.00 412.00
C 175.02 416.05 176.12 401.34 169.00 403.00
C 167.79 408.09 173.27 412.56 166.00 413.00
C 165.09 405.79 166.53 397.29 166.00 389.00
C 176.30 384.56 186.89 397.99 177.00 403.00
M 199.00 389.00 
C 200.46 393.44 196.07 393.28 193.00 393.00
C 191.75 399.31 195.65 408.45 190.77 412.77 C 186.81 407.88 190.06 399.31 189.00 393.00
C 173.35 391.46 192.57 386.89 199.00 389.00
M 206.00 393.00 
C 204.02 399.21 209.22 399.69 214.00 399.00
C 214.99 403.77 208.70 401.45 206.00 402.00
C 205.05 406.12 209.22 413.45 202.00 412.00
C 201.79 404.21 203.74 396.94 203.00 389.00
C 207.00 389.48 211.61 388.02 215.22 389.78 C 217.29 394.62 208.80 392.60 206.00 393.00
M 230.00 389.00 
C 241.02 394.17 238.72 413.89 225.99 412.99 C 212.84 410.61 215.49 386.23 230.00 389.00
M 244.00 389.00 
C 243.48 395.89 244.59 402.33 245.00 409.00
C 248.00 409.00 251.00 409.00 254.00 409.00
C 254.09 414.56 245.54 410.81 242.00 413.00
C 240.75 406.45 238.42 393.33 244.00 389.00
M 261.00 389.00 
C 261.00 396.67 261.00 404.33 261.00 412.00
C 253.81 413.52 258.90 404.09 256.22 400.78 C 258.91 397.15 253.66 387.69 261.00 389.00
M 278.00 389.00 
C 288.87 393.94 285.07 416.43 271.93 412.07 C 259.65 408.93 263.88 385.00 278.00 389.00
M 117.00 403.00 
C 91.33 403.00 65.67 403.00 40.00 403.00
C 41.88 394.46 57.49 401.09 65.00 399.00 C 75.00 399.00 85.00 399.00 95.00 399.00 C 102.30 401.50 116.02 393.21 117.00 403.00
M 368.00 399.00 
C 366.98 407.33 352.61 401.05 346.00 403.00 C 328.00 403.00 310.00 403.00 292.00 403.00
C 293.02 394.67 307.39 400.95 314.00 399.00 C 332.00 399.00 350.00 399.00 368.00 399.00
M 239.00 404.00 
C 238.85 405.63 237.49 403.87 239.00 404.00
M 171.00 406.00 
C 170.85 407.63 169.49 405.87 171.00 406.00
M 173.00 406.00 
C 172.85 407.63 171.49 405.87 173.00 406.00
M 181.00 406.00 
C 180.85 407.63 179.49 405.87 181.00 406.00
M 171.00 408.00 
C 170.85 409.63 169.49 407.87 171.00 408.00
M 173.00 408.00 
C 172.85 409.63 171.49 407.87 173.00 408.00 Z"/>
</g>
<g fill="None" fill-opacity="0.0" stroke="#85BB1D" stroke-opacity="0.97" stroke-width="0.3"><path d="
M 288.00 83.00 
C 285.04 59.98 299.66 16.64 265.00 16.00 C 225.00 16.00 185.00 16.00 145.00 16.00 C 130.84 10.72 108.86 35.60 128.31 41.69 C 154.44 55.59 180.83 69.05 206.77 83.23 C 229.12 101.36 215.05 135.48 219.00 161.00 C 221.25 168.26 213.87 184.86 224.00 185.00
C 227.62 160.93 215.18 130.44 233.77 111.77 C 251.63 101.83 269.35 91.24 288.00 83.00 Z"/>
</g>
<g fill="None" fill-opacity="0.0" stroke="#85BB1D" stroke-opacity="0.96" stroke-width="0.3"><path d="
M 212.00 185.00 
C 209.54 166.88 218.98 143.49 202.25 130.75 C 175.11 115.79 147.62 100.49 120.00 87.00
C 120.00 108.33 120.00 129.67 120.00 151.00 C 115.21 169.67 128.39 189.90 149.00 185.00 C 170.00 185.00 191.00 185.00 212.00 185.00 Z"/>
</g>
<g fill="None" fill-opacity="0.0" stroke="#85BB1D" stroke-opacity="0.96" stroke-width="0.3"><path d="
M 288.00 132.00 
C 267.44 146.52 226.57 151.47 231.00 185.00
C 247.52 183.17 266.80 189.47 280.92 179.92 C 293.96 168.54 285.65 147.70 288.00 132.00 Z"/>
</g>
<g fill="None" fill-opacity="0.0" stroke="#85BB1D" stroke-opacity="0.95" stroke-width="0.3"><path d="
M 134.00 338.00 
C 134.00 323.00 134.00 308.00 134.00 293.00 C 131.66 265.43 138.97 234.59 129.75 209.25 C 119.58 199.09 103.05 206.05 90.00 204.00 C 68.67 207.55 24.46 192.13 26.00 224.00 C 27.64 237.22 22.49 254.94 29.00 265.00
C 21.81 268.20 28.09 282.14 26.00 290.00 C 26.00 300.00 26.00 310.00 26.00 320.00 C 25.64 328.90 23.56 342.25 37.00 338.00 C 46.41 338.47 58.70 340.16 54.00 327.00 C 56.06 319.43 49.52 304.76 58.00 302.00 C 75.09 302.76 88.16 301.94 106.00 303.00
C 106.00 314.67 106.00 326.33 106.00 338.00
C 115.33 338.00 124.67 338.00 134.00 338.00
M 106.00 231.00 
C 106.00 245.33 106.00 259.67 106.00 274.00
C 88.67 274.00 71.33 274.00 54.00 274.00
C 56.31 259.44 52.86 246.36 54.00 231.00
C 71.33 231.00 88.67 231.00 106.00 231.00 Z"/>
</g>
<g fill="None" fill-opacity="0.0" stroke="#000000" stroke-opacity="0.00" stroke-width="0.3"><path d="
M 106.00 231.00 
C 88.67 231.00 71.33 231.00 54.00 231.00
C 52.86 246.36 56.31 259.44 54.00 274.00
C 71.33 274.00 88.67 274.00 106.00 274.00
C 106.00 259.67 106.00 245.33 106.00 231.00 Z"/>
</g>
<g fill="None" fill-opacity="0.0" stroke="#85BB1D" stroke-opacity="0.96" stroke-width="0.3"><path d="
M 186.00 337.00 
C 200.00 337.00 214.00 337.00 228.00 337.00 C 239.39 337.54 255.32 338.93 257.67 324.67 C 258.25 312.42 257.99 298.39 258.20 287.25 C 257.95 272.61 264.86 235.35 236.00 239.00 C 209.86 241.11 181.01 234.57 156.70 242.70 C 146.96 250.75 151.07 266.20 150.00 278.00 C 150.00 306.00 150.00 334.00 150.00 362.00 C 145.09 381.14 167.05 370.42 178.00 373.00
C 178.00 337.33 178.00 301.67 178.00 266.00
C 195.67 266.00 213.33 266.00 231.00 266.00
C 231.00 280.67 231.00 295.33 231.00 310.00
C 219.00 310.00 207.00 310.00 195.00 310.00
C 192.25 319.10 189.26 328.07 186.00 337.00 Z"/>
</g>
<g fill="None" fill-opacity="0.0" stroke="#85BB1D" stroke-opacity="0.96" stroke-width="0.3"><path d="
M 310.00 338.00 
C 330.84 336.84 352.98 340.46 372.92 335.92 C 387.51 328.02 380.86 309.38 382.60 298.75 C 380.44 283.98 385.15 261.86 379.25 245.75 C 364.01 232.28 340.05 241.92 321.00 239.00 C 304.45 239.78 273.34 232.59 275.00 258.00 C 274.24 295.56 275.40 332.72 275.00 373.00
C 284.00 373.00 293.00 373.00 302.00 373.00
C 303.11 339.79 301.71 304.47 302.00 267.00
C 319.67 267.00 337.33 267.00 355.00 267.00
C 354.61 280.29 353.86 295.57 355.00 310.00
C 343.00 310.00 331.00 310.00 319.00 310.00
C 316.35 319.46 312.64 328.57 310.00 338.00 Z"/>
</g>
<g fill="None" fill-opacity="0.0" stroke="#85BB1D" stroke-opacity="0.31" stroke-width="0.3"><path d="
M 78.00 306.00 
C 74.30 304.67 69.51 308.18 72.33 311.67 C 76.14 313.58 80.57 309.62 78.00 306.00 Z"/>
</g>
<g fill="None" fill-opacity="0.0" stroke="#85BB1D" stroke-opacity="0.58" stroke-width="0.3"><path d="
M 162.00 409.00 
C 160.43 403.94 163.95 391.50 154.07 388.93 C 144.97 385.97 139.71 397.92 142.23 405.77 C 145.93 414.96 155.67 413.07 162.00 409.00
M 155.00 393.00 
C 157.73 397.46 160.17 404.88 152.97 408.97 C 143.06 409.85 144.59 389.71 155.00 393.00 Z"/>
</g>
<g fill="None" fill-opacity="0.0" stroke="#85BB1D" stroke-opacity="0.55" stroke-width="0.3"><path d="
M 128.00 403.00 
C 133.47 405.43 141.14 401.95 139.97 395.03 C 139.38 387.00 129.69 389.24 124.00 389.00
C 124.00 397.00 124.00 405.00 124.00 413.00
C 129.91 413.83 127.56 406.50 128.00 403.00
M 128.00 400.00 
C 126.16 394.53 130.18 390.73 135.22 393.78 C 138.32 398.34 131.90 401.29 128.00 400.00 Z"/>
</g>
<g fill="None" fill-opacity="0.0" stroke="#85BB1D" stroke-opacity="0.71" stroke-width="0.3"><path d="
M 177.00 403.00 
C 186.89 397.99 176.30 384.56 166.00 389.00
C 166.53 397.29 165.09 405.79 166.00 413.00
C 173.27 412.56 167.79 408.09 169.00 403.00
C 176.12 401.34 175.02 416.05 182.00 412.00
C 180.53 408.86 178.28 406.26 177.00 403.00
M 177.00 393.00 
C 178.55 398.26 173.69 401.28 169.00 400.00
C 167.18 393.21 170.95 390.33 177.00 393.00 Z"/>
</g>
<g fill="None" fill-opacity="0.0" stroke="#85BB1D" stroke-opacity="0.61" stroke-width="0.3"><path d="
M 199.00 389.00 
C 192.57 386.89 173.35 391.46 189.00 393.00
C 190.06 399.31 186.81 407.88 190.77 412.77 C 195.65 408.45 191.75 399.31 193.00 393.00
C 196.07 393.28 200.46 393.44 199.00 389.00 Z"/>
</g>
<g fill="None" fill-opacity="0.0" stroke="#85BB1D" stroke-opacity="0.67" stroke-width="0.3"><path d="
M 206.00 393.00 
C 208.80 392.60 217.29 394.62 215.22 389.78 C 211.61 388.02 207.00 389.48 203.00 389.00
C 203.74 396.94 201.79 404.21 202.00 412.00
C 209.22 413.45 205.05 406.12 206.00 402.00
C 208.70 401.45 214.99 403.77 214.00 399.00
C 209.22 399.69 204.02 399.21 206.00 393.00 Z"/>
</g>
<g fill="None" fill-opacity="0.0" stroke="#85BB1D" stroke-opacity="0.71" stroke-width="0.3"><path d="
M 230.00 389.00 
C 215.49 386.23 212.84 410.61 225.99 412.99 C 238.72 413.89 241.02 394.17 230.00 389.00
M 228.00 392.00 
C 235.56 393.62 235.20 410.19 226.00 409.00 C 218.65 406.81 219.30 392.37 228.00 392.00 Z"/>
</g>
<g fill="None" fill-opacity="0.0" stroke="#85BB1D" stroke-opacity="0.71" stroke-width="0.3"><path d="
M 244.00 389.00 
C 238.42 393.33 240.75 406.45 242.00 413.00
C 245.54 410.81 254.09 414.56 254.00 409.00
C 251.00 409.00 248.00 409.00 245.00 409.00
C 244.59 402.33 243.48 395.89 244.00 389.00 Z"/>
</g>
<g fill="None" fill-opacity="0.0" stroke="#85BB1D" stroke-opacity="0.63" stroke-width="0.3"><path d="
M 261.00 389.00 
C 253.66 387.69 258.91 397.15 256.22 400.78 C 258.90 404.09 253.81 413.52 261.00 412.00
C 261.00 404.33 261.00 396.67 261.00 389.00 Z"/>
</g>
<g fill="None" fill-opacity="0.0" stroke="#85BB1D" stroke-opacity="0.67" stroke-width="0.3"><path d="
M 278.00 389.00 
C 263.88 385.00 259.65 408.93 271.93 412.07 C 285.07 416.43 288.87 393.94 278.00 389.00
M 278.00 393.00 
C 282.78 398.12 281.32 410.78 272.33 408.67 C 265.69 404.39 268.13 389.37 278.00 393.00 Z"/>
</g>
<g fill="None" fill-opacity="0.0" stroke="#000000" stroke-opacity="0.00" stroke-width="0.3"><path d="
M 177.00 393.00 
C 170.95 390.33 167.18 393.21 169.00 400.00
C 173.69 401.28 178.55 398.26 177.00 393.00 Z"/>
</g>
<g fill="None" fill-opacity="0.0" stroke="#000000" stroke-opacity="0.00" stroke-width="0.3"><path d="
M 228.00 392.00 
C 219.30 392.37 218.65 406.81 226.00 409.00 C 235.20 410.19 235.56 393.62 228.00 392.00 Z"/>
</g>
<g fill="None" fill-opacity="0.0" stroke="#000000" stroke-opacity="0.00" stroke-width="0.3"><path d="
M 128.00 400.00 
C 131.90 401.29 138.32 398.34 135.22 393.78 C 130.18 390.73 126.16 394.53 128.00 400.00 Z"/>
</g>
<g fill="None" fill-opacity="0.0" stroke="#000000" stroke-opacity="0.00" stroke-width="0.3"><path d="
M 155.00 393.00 
C 144.59 389.71 143.06 409.85 152.97 408.97 C 160.17 404.88 157.73 397.46 155.00 393.00 Z"/>
</g>
<g fill="None" fill-opacity="0.0" stroke="#000000" stroke-opacity="0.00" stroke-width="0.3"><path d="
M 278.00 393.00 
C 268.13 389.37 265.69 404.39 272.33 408.67 C 281.32 410.78 282.78 398.12 278.00 393.00 Z"/>
</g>
<g fill="None" fill-opacity="0.0" stroke="#85BB1D" stroke-opacity="0.55" stroke-width="0.3"><path d="
M 117.00 403.00 
C 116.02 393.21 102.30 401.50 95.00 399.00 C 85.00 399.00 75.00 399.00 65.00 399.00 C 57.49 401.09 41.88 394.46 40.00 403.00
C 65.67 403.00 91.33 403.00 117.00 403.00 Z"/>
</g>
<g fill="None" fill-opacity="0.0" stroke="#85BB1D" stroke-opacity="0.63" stroke-width="0.3"><path d="
M 368.00 399.00 
C 350.00 399.00 332.00 399.00 314.00 399.00 C 307.39 400.95 293.02 394.67 292.00 403.00
C 310.00 403.00 328.00 403.00 346.00 403.00 C 352.61 401.05 366.98 407.33 368.00 399.00 Z"/>
</g>
<g fill="None" fill-opacity="0.0" stroke="#85BB1D" stroke-opacity="0.00" stroke-width="0.3"><path d="
M 239.00 404.00 
C 237.49 403.87 238.85 405.63 239.00 404.00 Z"/>
</g>
<g fill="None" fill-opacity="0.0" stroke="#85BB1D" stroke-opacity="0.00" stroke-width="0.3"><path d="
M 171.00 406.00 
C 169.49 405.87 170.85 407.63 171.00 406.00 Z"/>
</g>
<g fill="None" fill-opacity="0.0" stroke="#85BB1D" stroke-opacity="0.00" stroke-width="0.3"><path d="
M 173.00 406.00 
C 171.49 405.87 172.85 407.63 173.00 406.00 Z"/>
</g>
<g fill="None" fill-opacity="0.0" stroke="#85BB1D" stroke-opacity="0.00" stroke-width="0.3"><path d="
M 181.00 406.00 
C 179.49 405.87 180.85 407.63 181.00 406.00 Z"/>
</g>
<g fill="None" fill-opacity="0.0" stroke="#85BB1D" stroke-opacity="0.00" stroke-width="0.3"><path d="
M 171.00 408.00 
C 169.49 407.87 170.85 409.63 171.00 408.00 Z"/>
</g>
<g fill="None" fill-opacity="0.0" stroke="#85BB1D" stroke-opacity="0.00" stroke-width="0.3"><path d="
M 173.00 408.00 
C 171.49 407.87 172.85 409.63 173.00 408.00 Z"/>
</g>
<g fill="#000000" fill-opacity="0.00" stroke="None">
<path d="
M 0.00 417.00 
L 405.00 417.00
L 405.00 0.00
L 0.00 0.00
L 0.00 417.00
M 288.00 83.00 
C 269.35 91.24 251.63 101.83 233.77 111.77 C 215.18 130.44 227.62 160.93 224.00 185.00
C 213.87 184.86 221.25 168.26 219.00 161.00 C 215.05 135.48 229.12 101.36 206.77 83.23 C 180.83 69.05 154.44 55.59 128.31 41.69 C 108.86 35.60 130.84 10.72 145.00 16.00 C 185.00 16.00 225.00 16.00 265.00 16.00 C 299.66 16.64 285.04 59.98 288.00 83.00
M 212.00 185.00 
C 191.00 185.00 170.00 185.00 149.00 185.00 C 128.39 189.90 115.21 169.67 120.00 151.00 C 120.00 129.67 120.00 108.33 120.00 87.00
C 147.62 100.49 175.11 115.79 202.25 130.75 C 218.98 143.49 209.54 166.88 212.00 185.00
M 288.00 132.00 
C 285.65 147.70 293.96 168.54 280.92 179.92 C 266.80 189.47 247.52 183.17 231.00 185.00
C 226.57 151.47 267.44 146.52 288.00 132.00
M 134.00 338.00 
C 124.67 338.00 115.33 338.00 106.00 338.00
C 106.00 326.33 106.00 314.67 106.00 303.00
C 88.16 301.94 75.09 302.76 58.00 302.00 C 49.52 304.76 56.06 319.43 54.00 327.00 C 58.70 340.16 46.41 338.47 37.00 338.00 C 23.56 342.25 25.64 328.90 26.00 320.00 C 26.00 310.00 26.00 300.00 26.00 290.00 C 28.09 282.14 21.81 268.20 29.00 265.00
C 22.49 254.94 27.64 237.22 26.00 224.00 C 24.46 192.13 68.67 207.55 90.00 204.00 C 103.05 206.05 119.58 199.09 129.75 209.25 C 138.97 234.59 131.66 265.43 134.00 293.00 C 134.00 308.00 134.00 323.00 134.00 338.00
M 186.00 337.00 
C 189.26 328.07 192.25 319.10 195.00 310.00
C 207.00 310.00 219.00 310.00 231.00 310.00
C 231.00 295.33 231.00 280.67 231.00 266.00
C 213.33 266.00 195.67 266.00 178.00 266.00
C 178.00 301.67 178.00 337.33 178.00 373.00
C 167.05 370.42 145.09 381.14 150.00 362.00 C 150.00 334.00 150.00 306.00 150.00 278.00 C 151.07 266.20 146.96 250.75 156.70 242.70 C 181.01 234.57 209.86 241.11 236.00 239.00 C 264.86 235.35 257.95 272.61 258.20 287.25 C 257.99 298.39 258.25 312.42 257.67 324.67 C 255.32 338.93 239.39 337.54 228.00 337.00 C 214.00 337.00 200.00 337.00 186.00 337.00
M 310.00 338.00 
C 312.64 328.57 316.35 319.46 319.00 310.00
C 331.00 310.00 343.00 310.00 355.00 310.00
C 353.86 295.57 354.61 280.29 355.00 267.00
C 337.33 267.00 319.67 267.00 302.00 267.00
C 301.71 304.47 303.11 339.79 302.00 373.00
C 293.00 373.00 284.00 373.00 275.00 373.00
C 275.40 332.72 274.24 295.56 275.00 258.00 C 273.34 232.59 304.45 239.78 321.00 239.00 C 340.05 241.92 364.01 232.28 379.25 245.75 C 385.15 261.86 380.44 283.98 382.60 298.75 C 380.86 309.38 387.51 328.02 372.92 335.92 C 352.98 340.46 330.84 336.84 310.00 338.00
M 78.00 306.00 
C 80.57 309.62 76.14 313.58 72.33 311.67 C 69.51 308.18 74.30 304.67 78.00 306.00
M 162.00 409.00 
C 155.67 413.07 145.93 414.96 142.23 405.77 C 139.71 397.92 144.97 385.97 154.07 388.93 C 163.95 391.50 160.43 403.94 162.00 409.00
M 128.00 403.00 
C 127.56 406.50 129.91 413.83 124.00 413.00
C 124.00 405.00 124.00 397.00 124.00 389.00
C 129.69 389.24 139.38 387.00 139.97 395.03 C 141.14 401.95 133.47 405.43 128.00 403.00
M 177.00 403.00 
C 178.28 406.26 180.53 408.86 182.00 412.00
C 175.02 416.05 176.12 401.34 169.00 403.00
C 167.79 408.09 173.27 412.56 166.00 413.00
C 165.09 405.79 166.53 397.29 166.00 389.00
C 176.30 384.56 186.89 397.99 177.00 403.00
M 199.00 389.00 
C 200.46 393.44 196.07 393.28 193.00 393.00
C 191.75 399.31 195.65 408.45 190.77 412.77 C 186.81 407.88 190.06 399.31 189.00 393.00
C 173.35 391.46 192.57 386.89 199.00 389.00
M 206.00 393.00 
C 204.02 399.21 209.22 399.69 214.00 399.00
C 214.99 403.77 208.70 401.45 206.00 402.00
C 205.05 406.12 209.22 413.45 202.00 412.00
C 201.79 404.21 203.74 396.94 203.00 389.00
C 207.00 389.48 211.61 388.02 215.22 389.78 C 217.29 394.62 208.80 392.60 206.00 393.00
M 230.00 389.00 
C 241.02 394.17 238.72 413.89 225.99 412.99 C 212.84 410.61 215.49 386.23 230.00 389.00
M 244.00 389.00 
C 243.48 395.89 244.59 402.33 245.00 409.00
C 248.00 409.00 251.00 409.00 254.00 409.00
C 254.09 414.56 245.54 410.81 242.00 413.00
C 240.75 406.45 238.42 393.33 244.00 389.00
M 261.00 389.00 
C 261.00 396.67 261.00 404.33 261.00 412.00
C 253.81 413.52 258.90 404.09 256.22 400.78 C 258.91 397.15 253.66 387.69 261.00 389.00
M 278.00 389.00 
C 288.87 393.94 285.07 416.43 271.93 412.07 C 259.65 408.93 263.88 385.00 278.00 389.00
M 117.00 403.00 
C 91.33 403.00 65.67 403.00 40.00 403.00
C 41.88 394.46 57.49 401.09 65.00 399.00 C 75.00 399.00 85.00 399.00 95.00 399.00 C 102.30 401.50 116.02 393.21 117.00 403.00
M 368.00 399.00 
C 366.98 407.33 352.61 401.05 346.00 403.00 C 328.00 403.00 310.00 403.00 292.00 403.00
C 293.02 394.67 307.39 400.95 314.00 399.00 C 332.00 399.00 350.00 399.00 368.00 399.00
M 239.00 404.00 
C 238.85 405.63 237.49 403.87 239.00 404.00
M 171.00 406.00 
C 170.85 407.63 169.49 405.87 171.00 406.00
M 173.00 406.00 
C 172.85 407.63 171.49 405.87 173.00 406.00
M 181.00 406.00 
C 180.85 407.63 179.49 405.87 181.00 406.00
M 171.00 408.00 
C 170.85 409.63 169.49 407.87 171.00 408.00
M 173.00 408.00 
C 172.85 409.63 171.49 407.87 173.00 408.00 Z"/>
</g>
<g fill="#85BB1D" fill-opacity="0.97" stroke="None">
<path d="
M 288.00 83.00 
C 285.04 59.98 299.66 16.64 265.00 16.00 C 225.00 16.00 185.00 16.00 145.00 16.00 C 130.84 10.72 108.86 35.60 128.31 41.69 C 154.44 55.59 180.83 69.05 206.77 83.23 C 229.12 101.36 215.05 135.48 219.00 161.00 C 221.25 168.26 213.87 184.86 224.00 185.00
C 227.62 160.93 215.18 130.44 233.77 111.77 C 251.63 101.83 269.35 91.24 288.00 83.00 Z"/>
</g>
<g fill="#85BB1D" fill-opacity="0.96" stroke="None">
<path d="
M 212.00 185.00 
C 209.54 166.88 218.98 143.49 202.25 130.75 C 175.11 115.79 147.62 100.49 120.00 87.00
C 120.00 108.33 120.00 129.67 120.00 151.00 C 115.21 169.67 128.39 189.90 149.00 185.00 C 170.00 185.00 191.00 185.00 212.00 185.00 Z"/>
</g>
<g fill="#85BB1D" fill-opacity="0.96" stroke="None">
<path d="
M 288.00 132.00 
C 267.44 146.52 226.57 151.47 231.00 185.00
C 247.52 183.17 266.80 189.47 280.92 179.92 C 293.96 168.54 285.65 147.70 288.00 132.00 Z"/>
</g>
<g fill="#85BB1D" fill-opacity="0.95" stroke="None">
<path d="
M 134.00 338.00 
C 134.00 323.00 134.00 308.00 134.00 293.00 C 131.66 265.43 138.97 234.59 129.75 209.25 C 119.58 199.09 103.05 206.05 90.00 204.00 C 68.67 207.55 24.46 192.13 26.00 224.00 C 27.64 237.22 22.49 254.94 29.00 265.00
C 21.81 268.20 28.09 282.14 26.00 290.00 C 26.00 300.00 26.00 310.00 26.00 320.00 C 25.64 328.90 23.56 342.25 37.00 338.00 C 46.41 338.47 58.70 340.16 54.00 327.00 C 56.06 319.43 49.52 304.76 58.00 302.00 C 75.09 302.76 88.16 301.94 106.00 303.00
C 106.00 314.67 106.00 326.33 106.00 338.00
C 115.33 338.00 124.67 338.00 134.00 338.00
M 106.00 231.00 
C 106.00 245.33 106.00 259.67 106.00 274.00
C 88.67 274.00 71.33 274.00 54.00 274.00
C 56.31 259.44 52.86 246.36 54.00 231.00
C 71.33 231.00 88.67 231.00 106.00 231.00 Z"/>
</g>
<g fill="#000000" fill-opacity="0.00" stroke="None">
<path d="
M 106.00 231.00 
C 88.67 231.00 71.33 231.00 54.00 231.00
C 52.86 246.36 56.31 259.44 54.00 274.00
C 71.33 274.00 88.67 274.00 106.00 274.00
C 106.00 259.67 106.00 245.33 106.00 231.00 Z"/>
</g>
<g fill="#85BB1D" fill-opacity="0.96" stroke="None">
<path d="
M 186.00 337.00 
C 200.00 337.00 214.00 337.00 228.00 337.00 C 239.39 337.54 255.32 338.93 257.67 324.67 C 258.25 312.42 257.99 298.39 258.20 287.25 C 257.95 272.61 264.86 235.35 236.00 239.00 C 209.86 241.11 181.01 234.57 156.70 242.70 C 146.96 250.75 151.07 266.20 150.00 278.00 C 150.00 306.00 150.00 334.00 150.00 362.00 C 145.09 381.14 167.05 370.42 178.00 373.00
C 178.00 337.33 178.00 301.67 178.00 266.00
C 195.67 266.00 213.33 266.00 231.00 266.00
C 231.00 280.67 231.00 295.33 231.00 310.00
C 219.00 310.00 207.00 310.00 195.00 310.00
C 192.25 319.10 189.26 328.07 186.00 337.00 Z"/>
</g>
<g fill="#85BB1D" fill-opacity="0.96" stroke="None">
<path d="
M 310.00 338.00 
C 330.84 336.84 352.98 340.46 372.92 335.92 C 387.51 328.02 380.86 309.38 382.60 298.75 C 380.44 283.98 385.15 261.86 379.25 245.75 C 364.01 232.28 340.05 241.92 321.00 239.00 C 304.45 239.78 273.34 232.59 275.00 258.00 C 274.24 295.56 275.40 332.72 275.00 373.00
C 284.00 373.00 293.00 373.00 302.00 373.00
C 303.11 339.79 301.71 304.47 302.00 267.00
C 319.67 267.00 337.33 267.00 355.00 267.00
C 354.61 280.29 353.86 295.57 355.00 310.00
C 343.00 310.00 331.00 310.00 319.00 310.00
C 316.35 319.46 312.64 328.57 310.00 338.00 Z"/>
</g>
<g fill="#85BB1D" fill-opacity="0.31" stroke="None">
<path d="
M 78.00 306.00 
C 74.30 304.67 69.51 308.18 72.33 311.67 C 76.14 313.58 80.57 309.62 78.00 306.00 Z"/>
</g>
<g fill="#85BB1D" fill-opacity="0.58" stroke="None">
<path d="
M 162.00 409.00 
C 160.43 403.94 163.95 391.50 154.07 388.93 C 144.97 385.97 139.71 397.92 142.23 405.77 C 145.93 414.96 155.67 413.07 162.00 409.00
M 155.00 393.00 
C 157.73 397.46 160.17 404.88 152.97 408.97 C 143.06 409.85 144.59 389.71 155.00 393.00 Z"/>
</g>
<g fill="#85BB1D" fill-opacity="0.55" stroke="None">
<path d="
M 128.00 403.00 
C 133.47 405.43 141.14 401.95 139.97 395.03 C 139.38 387.00 129.69 389.24 124.00 389.00
C 124.00 397.00 124.00 405.00 124.00 413.00
C 129.91 413.83 127.56 406.50 128.00 403.00
M 128.00 400.00 
C 126.16 394.53 130.18 390.73 135.22 393.78 C 138.32 398.34 131.90 401.29 128.00 400.00 Z"/>
</g>
<g fill="#85BB1D" fill-opacity="0.71" stroke="None">
<path d="
M 177.00 403.00 
C 186.89 397.99 176.30 384.56 166.00 389.00
C 166.53 397.29 165.09 405.79 166.00 413.00
C 173.27 412.56 167.79 408.09 169.00 403.00
C 176.12 401.34 175.02 416.05 182.00 412.00
C 180.53 408.86 178.28 406.26 177.00 403.00
M 177.00 393.00 
C 178.55 398.26 173.69 401.28 169.00 400.00
C 167.18 393.21 170.95 390.33 177.00 393.00 Z"/>
</g>
<g fill="#85BB1D" fill-opacity="0.61" stroke="None">
<path d="
M 199.00 389.00 
C 192.57 386.89 173.35 391.46 189.00 393.00
C 190.06 399.31 186.81 407.88 190.77 412.77 C 195.65 408.45 191.75 399.31 193.00 393.00
C 196.07 393.28 200.46 393.44 199.00 389.00 Z"/>
</g>
<g fill="#85BB1D" fill-opacity="0.67" stroke="None">
<path d="
M 206.00 393.00 
C 208.80 392.60 217.29 394.62 215.22 389.78 C 211.61 388.02 207.00 389.48 203.00 389.00
C 203.74 396.94 201.79 404.21 202.00 412.00
C 209.22 413.45 205.05 406.12 206.00 402.00
C 208.70 401.45 214.99 403.77 214.00 399.00
C 209.22 399.69 204.02 399.21 206.00 393.00 Z"/>
</g>
<g fill="#85BB1D" fill-opacity="0.71" stroke="None">
<path d="
M 230.00 389.00 
C 215.49 386.23 212.84 410.61 225.99 412.99 C 238.72 413.89 241.02 394.17 230.00 389.00
M 228.00 392.00 
C 235.56 393.62 235.20 410.19 226.00 409.00 C 218.65 406.81 219.30 392.37 228.00 392.00 Z"/>
</g>
<g fill="#85BB1D" fill-opacity="0.71" stroke="None">
<path d="
M 244.00 389.00 
C 238.42 393.33 240.75 406.45 242.00 413.00
C 245.54 410.81 254.09 414.56 254.00 409.00
C 251.00 409.00 248.00 409.00 245.00 409.00
C 244.59 402.33 243.48 395.89 244.00 389.00 Z"/>
</g>
<g fill="#85BB1D" fill-opacity="0.63" stroke="None">
<path d="
M 261.00 389.00 
C 253.66 387.69 258.91 397.15 256.22 400.78 C 258.90 404.09 253.81 413.52 261.00 412.00
C 261.00 404.33 261.00 396.67 261.00 389.00 Z"/>
</g>
<g fill="#85BB1D" fill-opacity="0.67" stroke="None">
<path d="
M 278.00 389.00 
C 263.88 385.00 259.65 408.93 271.93 412.07 C 285.07 416.43 288.87 393.94 278.00 389.00
M 278.00 393.00 
C 282.78 398.12 281.32 410.78 272.33 408.67 C 265.69 404.39 268.13 389.37 278.00 393.00 Z"/>
</g>
<g fill="#000000" fill-opacity="0.00" stroke="None">
<path d="
M 177.00 393.00 
C 170.95 390.33 167.18 393.21 169.00 400.00
C 173.69 401.28 178.55 398.26 177.00 393.00 Z"/>
</g>
<g fill="#000000" fill-opacity="0.00" stroke="None">
<path d="
M 228.00 392.00 
C 219.30 392.37 218.65 406.81 226.00 409.00 C 235.20 410.19 235.56 393.62 228.00 392.00 Z"/>
</g>
<g fill="#000000" fill-opacity="0.00" stroke="None">
<path d="
M 128.00 400.00 
C 131.90 401.29 138.32 398.34 135.22 393.78 C 130.18 390.73 126.16 394.53 128.00 400.00 Z"/>
</g>
<g fill="#000000" fill-opacity="0.00" stroke="None">
<path d="
M 155.00 393.00 
C 144.59 389.71 143.06 409.85 152.97 408.97 C 160.17 404.88 157.73 397.46 155.00 393.00 Z"/>
</g>
<g fill="#000000" fill-opacity="0.00" stroke="None">
<path d="
M 278.00 393.00 
C 268.13 389.37 265.69 404.39 272.33 408.67 C 281.32 410.78 282.78 398.12 278.00 393.00 Z"/>
</g>
<g fill="#85BB1D" fill-opacity="0.55" stroke="None">
<path d="
M 117.00 403.00 
C 116.02 393.21 102.30 401.50 95.00 399.00 C 85.00 399.00 75.00 399.00 65.00 399.00 C 57.49 401.09 41.88 394.46 40.00 403.00
C 65.67 403.00 91.33 403.00 117.00 403.00 Z"/>
</g>
<g fill="#85BB1D" fill-opacity="0.63" stroke="None">
<path d="
M 368.00 399.00 
C 350.00 399.00 332.00 399.00 314.00 399.00 C 307.39 400.95 293.02 394.67 292.00 403.00
C 310.00 403.00 328.00 403.00 346.00 403.00 C 352.61 401.05 366.98 407.33 368.00 399.00 Z"/>
</g>
<g fill="#85BB1D" fill-opacity="0.00" stroke="None">
<path d="
M 239.00 404.00 
C 237.49 403.87 238.85 405.63 239.00 404.00 Z"/>
</g>
<g fill="#85BB1D" fill-opacity="0.00" stroke="None">
<path d="
M 171.00 406.00 
C 169.49 405.87 170.85 407.63 171.00 406.00 Z"/>
</g>
<g fill="#85BB1D" fill-opacity="0.00" stroke="None">
<path d="
M 173.00 406.00 
C 171.49 405.87 172.85 407.63 173.00 406.00 Z"/>
</g>
<g fill="#85BB1D" fill-opacity="0.00" stroke="None">
<path d="
M 181.00 406.00 
C 179.49 405.87 180.85 407.63 181.00 406.00 Z"/>
</g>
<g fill="#85BB1D" fill-opacity="0.00" stroke="None">
<path d="
M 171.00 408.00 
C 169.49 407.87 170.85 409.63 171.00 408.00 Z"/>
</g>
<g fill="#85BB1D" fill-opacity="0.00" stroke="None">
<path d="
M 173.00 408.00 
C 171.49 407.87 172.85 409.63 173.00 408.00 Z"/>
</g>
</svg>